<?xml version="1.0" encoding="utf-8"?>
<!-- Generator: Adobe Illustrator 22.0.0, SVG Export Plug-In . SVG Version: 6.00 Build 0)  -->
<svg version="1.1" xmlns="http://www.w3.org/2000/svg" xmlns:xlink="http://www.w3.org/1999/xlink" x="0px" y="0px"
	 viewBox="0 0 1920 1080" style="enable-background:new 0 0 1920 1080;" xml:space="preserve">
<style type="text/css">
	.st0{display:none;fill:#FFD41A;}
</style>
<g id="Layer_1">
</g>
<g id="Graphic_Elements">
	<g>
		<path d="M927.5,434.1l-46,134.9c-0.9,2.7,1.4,5.3,4.1,4.6l60.1-16.1c2.5-0.7,4.8,1.7,4.2,4.3l-22.7,121.8c-1,4,4.3,6.2,6.3,2.6
			l90.5-169.3c1.4-2.6-0.7-5.8-3.6-5.3l-71.4,12.8c-2.8,0.5-5-2.7-3.5-5.3l64.2-117.1c1.6-3,4.4-7.8,1.3-6.4L929.4,432
			C928.5,432.4,927.8,433.1,927.5,434.1z"/>
		<path class="st0" d="M941.2,427.7l-46,129.7c-0.9,2.6,1.4,5.1,4.1,4.4l60.1-15.5c2.5-0.6,4.8,1.6,4.2,4.1l-33.6,133.2
			c-1,3.9,4.3,6,6.3,2.5l101.4-178.9c1.4-2.5-0.7-5.5-3.6-5.1l-71.4,12.3c-2.8,0.5-5-2.5-3.5-5.1l64.2-112.6
			c1.6-2.9-1.3-6.1-4.3-4.8L943,425.7C942.2,426.1,941.5,426.8,941.2,427.7z"/>
	</g>
</g>
</svg>
