<svg id="Layer_1" data-name="Layer 1" xmlns="http://www.w3.org/2000/svg" viewBox="0 0 108 75.94"><defs><style>.cls-1{fill:#fff;}</style></defs><title>icon</title><path class="cls-1" d="M82.43,82.13l-7.24,4.41L53.65,75.33Q41.59,70,41.59,62.24c0-2.77,1-6.57,3.08-8.49a10.77,10.77,0,0,1,7.54-2.87,16.12,16.12,0,0,1,11.08,4.26A13,13,0,0,1,68,65c0,.28-.07,1.22-.2,2.82l0,1.18c-.07.76-.11,1.32-.11,1.7q0,3.69,5.85,6.36c.69.34,1.35.7,2,1.08l6.93,3.95" transform="translate(-38.66 -50.88)"/><path class="cls-1" d="M71.86,91.77l52.57-32.21c1-.13,4.46-1.64,8.59-2.36,4.65-.81,9-.86,13.64,1L85,94a31.3,31.3,0,0,1-4,2.1L80,96.5q-4.41,1.64-4.41,5.9v.46l.1,1.28.16,2.51q.36,7-7.55,13.55t-16.62,6.62a11.39,11.39,0,0,1-7.23-2.21c-1.89-1.5-5.75-6.32-5.75-8.61q0-4.47,8.78-10S71.92,92.25,71.86,91.77" transform="translate(-38.66 -50.88)"/><path class="cls-1" d="M88.53,95l7.9-4.72,50.23,28.83c-4.2,1.71-6.06,1.49-9.89,1.49-1.54,0-6.44.58-10-.77L88.53,95" transform="translate(-38.66 -50.88)"/><path class="cls-1" d="M52.19,68.37l2.19,1.08a12.2,12.2,0,0,0,4.8,1.39c2.39,0,3.58-1.68,3.58-5a9.17,9.17,0,0,0-3.31-6.77A10.51,10.51,0,0,0,52.14,56,5.82,5.82,0,0,0,48,57.62a5.34,5.34,0,0,0-1.7,3.94q0,3.81,5.87,6.81" transform="translate(-38.66 -50.88)"/><path class="cls-1" d="M49.07,110.91c-3.6,2.26-4.31,4.58-4.31,6.26a3.41,3.41,0,0,0,1.64,3.08,9.52,9.52,0,0,0,4.93,1q6.77,0,13.29-5.28t6.51-10.78c0-2.46-3.6-3.33-5.75-3.33" transform="translate(-38.66 -50.88)"/><path class="cls-1" d="M85,91.26c1.68,0,2.51-.8,2.51-2.41s-.83-2.41-2.51-2.41a2.41,2.41,0,1,0,0,4.82" transform="translate(-38.66 -50.88)"/></svg>