<svg id="Layer_1" data-name="Layer 1" xmlns="http://www.w3.org/2000/svg" viewBox="0 0 586.29 124.8"><defs><style>.cls-1{fill:#fff;}.cls-2{font-size:82px;font-family:QUARTZO-Bold, QUARTZO;font-weight:700;}.cls-3{letter-spacing:-0.14em;}.cls-4{letter-spacing:-0.03em;}.cls-5{letter-spacing:0em;}</style></defs><title>logo</title><path d="M679,467.54l-3.8,7.58L651,477q-13,1.92-17.16-4.7c-1.47-2.34-2.62-6.11-1.9-8.82a10.78,10.78,0,0,1,4.87-6.44,16.15,16.15,0,0,1,11.66-2.27,13,13,0,0,1,9.25,5.89c.15.23.59,1.07,1.32,2.5l.59,1c.34.67.61,1.17.81,1.49q2,3.13,8.33,2.29c.76-.07,1.52-.12,2.27-.15l8-.32" transform="translate(-631.71 -413.2)"/><path d="M675.15,481.33l27.49-55.2c.76-.64,2.9-3.76,6-6.56,3.51-3.15,7.2-5.52,12.11-6.37l-33.27,63a34.23,34.23,0,0,1-2.23,3.88l-.74.95q-2.88,3.74-.61,7.34l.24.39.77,1,1.46,2q4,5.73.79,15.49T676.6,521.76a11.38,11.38,0,0,1-7.3,2c-2.4-.28-8.22-2.31-9.44-4.25q-2.37-3.79,2.16-13.1s13.44-24.68,13.13-25.05" transform="translate(-631.71 -413.2)"/><path d="M691,475.22l4.19-8.19,57.88-2.2c-2.66,3.68-4.35,4.48-7.6,6.51-1.3.81-5.15,3.91-8.9,4.66L691,475.22" transform="translate(-631.71 -413.2)"/><path class="cls-1" d="M646.06,471.92l2.44-.26a12.06,12.06,0,0,0,4.8-1.36c2-1.27,2.15-3.32.37-6.15a9.12,9.12,0,0,0-6.4-4,10.47,10.47,0,0,0-7.83,1.25,5.8,5.8,0,0,0-2.61,3.59,5.3,5.3,0,0,0,.65,4.25c1.34,2.15,4.21,3,8.58,2.66" transform="translate(-631.71 -413.2)"/><path class="cls-1" d="M666,509.63c-1.85,3.82-1.22,6.17-.33,7.6a3.35,3.35,0,0,0,3,1.73,9.42,9.42,0,0,0,4.72-1.74q5.75-3.59,8.47-11.53t-.2-12.59c-1.3-2.09-4.81-.92-6.64.23" transform="translate(-631.71 -413.2)"/><path d="M686,473.93q2.13-1.33.86-3.38c-.86-1.37-2-1.6-3.41-.71a2.41,2.41,0,1,0,2.55,4.09" transform="translate(-631.71 -413.2)"/><text class="cls-2" transform="translate(124.91 84.25)">T<tspan class="cls-3" x="44.03" y="0">a</tspan><tspan x="81.18" y="0">y</tspan><tspan class="cls-4" x="124.48" y="0">l</tspan><tspan x="149.32" y="0">orL</tspan><tspan class="cls-5" x="278.63" y="0">i</tspan><tspan x="303.56" y="0">nks</tspan></text></svg>