<?xml version="1.0" encoding="utf-8"?>
<!-- Generator: Adobe Illustrator 22.0.0, SVG Export Plug-In . SVG Version: 6.00 Build 0)  -->
<svg version="1.1" xmlns="http://www.w3.org/2000/svg" xmlns:xlink="http://www.w3.org/1999/xlink" x="0px" y="0px"
	 viewBox="0 0 1920 1080" style="enable-background:new 0 0 1920 1080;" xml:space="preserve">
<style type="text/css">
	.st0{display:none;fill:#FFD41A;}
	.st1{fill:none;}
	.st2{font-family:'QUARTZO-Bold';}
	.st3{font-size:179px;}
</style>
<g id="Layer_1">
</g>
<g id="Graphic_Elements">
	<g>
		<path d="M568.5,431.1l-46,134.9c-0.9,2.7,1.4,5.3,4.1,4.6l60.1-16.1c2.5-0.7,4.8,1.7,4.2,4.3l-22.7,121.8c-1,4,4.3,6.2,6.3,2.6
			l90.5-169.3c1.4-2.6-0.7-5.8-3.6-5.3l-71.4,12.8c-2.8,0.5-5-2.7-3.5-5.3l64.2-117.1c1.6-3,4.4-7.8,1.3-6.4L570.4,429
			C569.5,429.4,568.8,430.1,568.5,431.1z"/>
		<path class="st0" d="M582.2,424.7l-46,129.7c-0.9,2.6,1.4,5.1,4.1,4.4l60.1-15.5c2.5-0.6,4.8,1.6,4.2,4.1l-33.6,133.2
			c-1,3.9,4.3,6,6.3,2.5l101.4-178.9c1.4-2.5-0.7-5.5-3.6-5.1l-71.4,12.3c-2.8,0.5-5-2.5-3.5-5.1l64.2-112.6
			c1.6-2.9-1.3-6.1-4.3-4.8L584,422.7C583.2,423.1,582.5,423.8,582.2,424.7z"/>
	</g>
	<rect x="699.3" y="456.8" class="st1" width="642.9" height="234.5"/>
	<text transform="matrix(1 0 0 1 699.2856 559.5059)" class="st2 st3">ZapLink</text>
</g>
</svg>
